<svg width="16" height="16" viewBox="0 0 16 16" fill="none" xmlns="http://www.w3.org/2000/svg">
<g clip-path="url(#clip0_596_9360)">
<path d="M12 7.55469H8.25867L9.00733 5.31002C9.142 4.90469 9.074 4.45535 8.824 4.10869C8.574 3.76202 8.16867 3.55469 7.74133 3.55469H6.66667C6.46867 3.55469 6.28133 3.64269 6.154 3.79469L3.02067 7.55469H1.33333C0.598 7.55469 0 8.15269 0 8.88802V14.888C0 15.6234 0.598 16.2214 1.33333 16.2214H10.2047C10.4759 16.2205 10.7405 16.1372 10.9635 15.9827C11.1864 15.8282 11.3572 15.6097 11.4533 15.356L13.2913 10.4554C13.3192 10.3805 13.3335 10.3012 13.3333 10.2214V8.88802C13.3333 8.15269 12.7353 7.55469 12 7.55469ZM1.33333 8.88802H2.66667V14.888H1.33333V8.88802ZM12 10.1007L10.2047 14.888H4V8.46269L6.97867 4.88802H7.74267L6.70133 8.01002C6.66753 8.11023 6.6581 8.21706 6.67383 8.32164C6.68956 8.42622 6.72999 8.52555 6.79177 8.61138C6.85356 8.69722 6.93492 8.76709 7.0291 8.8152C7.12328 8.86331 7.22758 8.88827 7.33333 8.88802H12V10.1007Z" fill="white"/>
</g>
<defs>
<clipPath id="clip0_596_9360">
<rect width="16" height="16" fill="white"/>
</clipPath>
</defs>
</svg>
