<svg width="63" height="9" viewBox="0 0 63 9" fill="none" xmlns="http://www.w3.org/2000/svg">
<path d="M0.355114 1.99503V0.727273H6.32812V1.99503H4.10156V8H2.58168V1.99503H0.355114ZM8.97816 8.10653C8.41708 8.10653 7.93413 7.9929 7.5293 7.76562C7.12683 7.53598 6.8167 7.21165 6.5989 6.79261C6.3811 6.37121 6.27219 5.87287 6.27219 5.29759C6.27219 4.73651 6.3811 4.24408 6.5989 3.82031C6.8167 3.39654 7.12328 3.06629 7.51864 2.82955C7.91637 2.5928 8.38275 2.47443 8.91779 2.47443C9.27764 2.47443 9.61263 2.53243 9.92276 2.64844C10.2353 2.76207 10.5075 2.93371 10.7395 3.16335C10.9739 3.39299 11.1562 3.68182 11.2864 4.02983C11.4166 4.37547 11.4817 4.7803 11.4817 5.24432V5.6598H6.87589V4.7223H10.0577C10.0577 4.5045 10.0104 4.31155 9.91566 4.14347C9.82096 3.97538 9.68957 3.84399 9.52148 3.74929C9.35576 3.65223 9.16282 3.60369 8.94265 3.60369C8.71301 3.60369 8.50941 3.65696 8.33185 3.76349C8.15666 3.86766 8.01935 4.00852 7.91992 4.18608C7.82049 4.36127 7.76959 4.55658 7.76722 4.77202V5.66335C7.76722 5.93324 7.81694 6.16643 7.91637 6.36293C8.01817 6.55942 8.1614 6.71094 8.34606 6.81747C8.53072 6.92401 8.7497 6.97727 9.00302 6.97727C9.17111 6.97727 9.32499 6.9536 9.46467 6.90625C9.60434 6.8589 9.7239 6.78788 9.82333 6.69318C9.92276 6.59848 9.99852 6.48248 10.0506 6.34517L11.4498 6.4375C11.3787 6.77367 11.2331 7.06723 11.013 7.31818C10.7952 7.56676 10.5134 7.76089 10.1678 7.90057C9.82451 8.03788 9.42797 8.10653 8.97816 8.10653ZM12.4689 8V2.54545H13.9355V3.49716H13.9924C14.0918 3.15862 14.2587 2.90294 14.4931 2.73011C14.7275 2.55492 14.9973 2.46733 15.3027 2.46733C15.3785 2.46733 15.4602 2.47206 15.5478 2.48153C15.6354 2.491 15.7123 2.50402 15.7786 2.5206V3.86293C15.7076 3.84162 15.6093 3.82268 15.4838 3.80611C15.3584 3.78954 15.2435 3.78125 15.1394 3.78125C14.9168 3.78125 14.718 3.82978 14.5428 3.92685C14.37 4.02154 14.2327 4.15412 14.1309 4.32457C14.0314 4.49503 13.9817 4.69152 13.9817 4.91406V8H12.4689ZM16.5607 8V2.54545H18.0735V8H16.5607ZM17.3207 1.84233C17.0958 1.84233 16.9028 1.76776 16.7418 1.61861C16.5832 1.46709 16.5039 1.28598 16.5039 1.07528C16.5039 0.86695 16.5832 0.68821 16.7418 0.539062C16.9028 0.387547 17.0958 0.311789 17.3207 0.311789C17.5456 0.311789 17.7373 0.387547 17.896 0.539062C18.0569 0.68821 18.1374 0.86695 18.1374 1.07528C18.1374 1.28598 18.0569 1.46709 17.896 1.61861C17.7373 1.76776 17.5456 1.84233 17.3207 1.84233ZM19.2853 8V2.54545H20.7271V3.50781H20.791C20.9047 3.18821 21.094 2.93608 21.3592 2.75142C21.6243 2.56676 21.9416 2.47443 22.3109 2.47443C22.685 2.47443 23.0034 2.56795 23.2662 2.75497C23.5289 2.93963 23.7041 3.19058 23.7917 3.50781H23.8485C23.9598 3.19531 24.161 2.94555 24.4522 2.75852C24.7458 2.56913 25.0926 2.47443 25.4927 2.47443C26.0017 2.47443 26.4148 2.6366 26.7321 2.96094C27.0517 3.28291 27.2115 3.73982 27.2115 4.33168V8H25.7022V4.62997C25.7022 4.32694 25.6217 4.09967 25.4608 3.94815C25.2998 3.79664 25.0985 3.72088 24.8571 3.72088C24.5824 3.72088 24.3682 3.80848 24.2143 3.98366C24.0604 4.15649 23.9835 4.38494 23.9835 4.66903V8H22.5169V4.59801C22.5169 4.33049 22.4399 4.11742 22.286 3.95881C22.1345 3.80019 21.9345 3.72088 21.6859 3.72088C21.5178 3.72088 21.3663 3.76349 21.2314 3.84872C21.0988 3.93158 20.9934 4.04877 20.9153 4.20028C20.8372 4.34943 20.7981 4.52462 20.7981 4.72585V8H19.2853ZM29.9618 8.10298C29.6138 8.10298 29.3037 8.04261 29.0314 7.92188C28.7592 7.79877 28.5437 7.61766 28.3851 7.37855C28.2289 7.13707 28.1507 6.83641 28.1507 6.47656C28.1507 6.17353 28.2064 5.91903 28.3176 5.71307C28.4289 5.5071 28.5804 5.34138 28.7722 5.21591C28.964 5.09044 29.1818 4.99574 29.4256 4.93182C29.6718 4.8679 29.9299 4.82292 30.1998 4.79688C30.517 4.76373 30.7727 4.73295 30.9668 4.70455C31.1609 4.67377 31.3018 4.62879 31.3894 4.5696C31.477 4.51042 31.5208 4.42282 31.5208 4.30682V4.28551C31.5208 4.06061 31.4498 3.8866 31.3077 3.76349C31.168 3.64039 30.9692 3.57884 30.7111 3.57884C30.4389 3.57884 30.2222 3.6392 30.0613 3.75994C29.9003 3.87831 29.7937 4.02746 29.7417 4.20739L28.3425 4.09375C28.4135 3.76231 28.5532 3.47585 28.7615 3.23438C28.9699 2.99053 29.2386 2.8035 29.5676 2.6733C29.8991 2.54072 30.2826 2.47443 30.7182 2.47443C31.0212 2.47443 31.3113 2.50994 31.5882 2.58097C31.8676 2.65199 32.115 2.76207 32.3304 2.91122C32.5482 3.06037 32.7199 3.25213 32.8453 3.48651C32.9708 3.71851 33.0336 3.99669 33.0336 4.32102V8H31.5989V7.24361H31.5563C31.4687 7.41406 31.3515 7.56439 31.2047 7.6946C31.0579 7.82244 30.8816 7.92306 30.6756 7.99645C30.4696 8.06747 30.2317 8.10298 29.9618 8.10298ZM30.3951 7.05895C30.6176 7.05895 30.8141 7.01515 30.9846 6.92756C31.155 6.83759 31.2888 6.71686 31.3858 6.56534C31.4829 6.41383 31.5314 6.24219 31.5314 6.05043V5.47159C31.4841 5.50237 31.419 5.53078 31.3361 5.55682C31.2556 5.58049 31.1645 5.60298 31.0627 5.62429C30.9609 5.64323 30.8591 5.66098 30.7573 5.67756C30.6555 5.69176 30.5632 5.70478 30.4803 5.71662C30.3027 5.74266 30.1477 5.78409 30.0151 5.84091C29.8825 5.89773 29.7795 5.97467 29.7061 6.07173C29.6328 6.16643 29.5961 6.2848 29.5961 6.42685C29.5961 6.63281 29.6706 6.79025 29.8198 6.89915C29.9713 7.00568 30.1631 7.05895 30.3951 7.05895ZM35.5779 6.4304L35.5815 4.61577H35.8017L37.5488 2.54545H39.2853L36.938 5.28693H36.5794L35.5779 6.4304ZM34.2072 8V0.727273H35.72V8H34.2072ZM37.6163 8L36.0112 5.62429L37.0197 4.5554L39.3883 8H37.6163ZM41.5829 8.10298C41.2349 8.10298 40.9248 8.04261 40.6525 7.92188C40.3803 7.79877 40.1648 7.61766 40.0062 7.37855C39.85 7.13707 39.7718 6.83641 39.7718 6.47656C39.7718 6.17353 39.8275 5.91903 39.9387 5.71307C40.05 5.5071 40.2015 5.34138 40.3933 5.21591C40.585 5.09044 40.8029 4.99574 41.0467 4.93182C41.2929 4.8679 41.551 4.82292 41.8208 4.79688C42.1381 4.76373 42.3938 4.73295 42.5879 4.70455C42.782 4.67377 42.9229 4.62879 43.0105 4.5696C43.0981 4.51042 43.1419 4.42282 43.1419 4.30682V4.28551C43.1419 4.06061 43.0708 3.8866 42.9288 3.76349C42.7891 3.64039 42.5903 3.57884 42.3322 3.57884C42.06 3.57884 41.8433 3.6392 41.6824 3.75994C41.5214 3.87831 41.4148 4.02746 41.3627 4.20739L39.9636 4.09375C40.0346 3.76231 40.1743 3.47585 40.3826 3.23438C40.591 2.99053 40.8597 2.8035 41.1887 2.6733C41.5202 2.54072 41.9037 2.47443 42.3393 2.47443C42.6423 2.47443 42.9324 2.50994 43.2093 2.58097C43.4887 2.65199 43.7361 2.76207 43.9515 2.91122C44.1693 3.06037 44.341 3.25213 44.4664 3.48651C44.5919 3.71851 44.6547 3.99669 44.6547 4.32102V8H43.22V7.24361H43.1774C43.0898 7.41406 42.9726 7.56439 42.8258 7.6946C42.679 7.82244 42.5027 7.92306 42.2967 7.99645C42.0907 8.06747 41.8528 8.10298 41.5829 8.10298ZM42.0162 7.05895C42.2387 7.05895 42.4352 7.01515 42.6056 6.92756C42.7761 6.83759 42.9099 6.71686 43.0069 6.56534C43.104 6.41383 43.1525 6.24219 43.1525 6.05043V5.47159C43.1052 5.50237 43.0401 5.53078 42.9572 5.55682C42.8767 5.58049 42.7856 5.60298 42.6838 5.62429C42.582 5.64323 42.4802 5.66098 42.3784 5.67756C42.2766 5.69176 42.1842 5.70478 42.1014 5.71662C41.9238 5.74266 41.7688 5.78409 41.6362 5.84091C41.5036 5.89773 41.4006 5.97467 41.3272 6.07173C41.2538 6.16643 41.2172 6.2848 41.2172 6.42685C41.2172 6.63281 41.2917 6.79025 41.4409 6.89915C41.5924 7.00568 41.7842 7.05895 42.0162 7.05895ZM50.3667 4.10085L48.9817 4.18608C48.958 4.06771 48.9071 3.96117 48.829 3.86648C48.7509 3.76941 48.6479 3.69247 48.5201 3.63565C48.3946 3.57647 48.2443 3.54688 48.0691 3.54688C47.8347 3.54688 47.637 3.59659 47.476 3.69602C47.315 3.79309 47.2346 3.9233 47.2346 4.08665C47.2346 4.21686 47.2866 4.32694 47.3908 4.4169C47.495 4.50687 47.6737 4.57907 47.927 4.63352L48.9142 4.83239C49.4445 4.94129 49.8399 5.11648 50.1003 5.35795C50.3607 5.59943 50.4909 5.91667 50.4909 6.30966C50.4909 6.66714 50.3856 6.98082 50.1749 7.25071C49.9666 7.5206 49.6801 7.7313 49.3155 7.88281C48.9533 8.03196 48.5355 8.10653 48.062 8.10653C47.3399 8.10653 46.7646 7.9562 46.3361 7.65554C45.91 7.35251 45.6602 6.94058 45.5868 6.41974L47.0748 6.34162C47.1197 6.56179 47.2286 6.72988 47.4015 6.84588C47.5743 6.95952 47.7956 7.01634 48.0655 7.01634C48.3307 7.01634 48.5437 6.96544 48.7047 6.86364C48.8681 6.75947 48.9509 6.62571 48.9533 6.46236C48.9509 6.32505 48.8929 6.21259 48.7793 6.125C48.6657 6.03504 48.4905 5.96638 48.2537 5.91903L47.3091 5.73082C46.7765 5.62429 46.3799 5.43963 46.1195 5.17685C45.8614 4.91406 45.7324 4.57907 45.7324 4.17188C45.7324 3.8215 45.8271 3.51965 46.0165 3.26634C46.2083 3.01302 46.477 2.81771 46.8226 2.6804C47.1706 2.54309 47.5778 2.47443 48.0442 2.47443C48.7331 2.47443 49.2753 2.62003 49.6706 2.91122C50.0684 3.20241 50.3004 3.59896 50.3667 4.10085ZM51.4435 8V2.54545H52.9563V8H51.4435ZM52.2035 1.84233C51.9786 1.84233 51.7856 1.76776 51.6246 1.61861C51.466 1.46709 51.3867 1.28598 51.3867 1.07528C51.3867 0.86695 51.466 0.68821 51.6246 0.539062C51.7856 0.387547 51.9786 0.311789 52.2035 0.311789C52.4284 0.311789 52.6201 0.387547 52.7788 0.539062C52.9397 0.68821 53.0202 0.86695 53.0202 1.07528C53.0202 1.28598 52.9397 1.46709 52.7788 1.61861C52.6201 1.76776 52.4284 1.84233 52.2035 1.84233ZM55.6809 4.84659V8H54.1681V0.727273H55.6383V3.50781H55.7022C55.8253 3.18584 56.0242 2.93371 56.2988 2.75142C56.5734 2.56676 56.9179 2.47443 57.3322 2.47443C57.711 2.47443 58.0413 2.55729 58.323 2.72301C58.6071 2.88636 58.8272 3.12192 58.9835 3.42969C59.1421 3.73509 59.2202 4.10085 59.2179 4.52699V8H57.7051V4.79688C57.7074 4.4607 57.6222 4.1991 57.4494 4.01207C57.2789 3.82505 57.0398 3.73153 56.7321 3.73153C56.5261 3.73153 56.3438 3.77533 56.1852 3.86293C56.0289 3.95052 55.9058 4.07836 55.8159 4.24645C55.7283 4.41217 55.6833 4.61222 55.6809 4.84659ZM62.2159 0.727273L62.0774 5.8196H60.7777L60.6357 0.727273H62.2159ZM61.4276 8.09233C61.1932 8.09233 60.992 8.00947 60.8239 7.84375C60.6558 7.67566 60.5729 7.47443 60.5753 7.24006C60.5729 7.00805 60.6558 6.80919 60.8239 6.64347C60.992 6.47775 61.1932 6.39489 61.4276 6.39489C61.6525 6.39489 61.8501 6.47775 62.0206 6.64347C62.1911 6.80919 62.2775 7.00805 62.2798 7.24006C62.2775 7.39631 62.236 7.53954 62.1555 7.66974C62.0774 7.79759 61.9744 7.90057 61.8466 7.97869C61.7188 8.05445 61.5791 8.09233 61.4276 8.09233Z" fill="#383A3B"/>
</svg>
