<svg width="35" height="35" viewBox="0 0 35 35" fill="none" xmlns="http://www.w3.org/2000/svg">
<path d="M30.6248 14.5834C30.5981 13.6905 30.3428 12.8194 29.8832 12.0534C29.4236 11.2874 28.7751 10.6521 27.9998 10.2084C27.8139 8.9381 27.1764 7.77737 26.2041 6.939C25.2318 6.10063 23.9899 5.6408 22.7061 5.64381C22.2138 5.64296 21.7235 5.7067 21.2478 5.83339C20.244 4.87506 18.9095 4.34033 17.5217 4.34033C16.1339 4.34033 14.7995 4.87506 13.7957 5.83339C13.3199 5.7067 12.8296 5.64296 12.3373 5.64381C11.0485 5.63375 9.79957 6.09039 8.82117 6.9294C7.84278 7.76841 7.20102 8.9331 7.01442 10.2084C6.23642 10.6503 5.58506 11.2848 5.12284 12.0509C4.66061 12.817 4.40304 13.6891 4.37484 14.5834C3.98806 14.5834 3.61713 14.737 3.34364 15.0105C3.07015 15.284 2.9165 15.655 2.9165 16.0417C2.91657 18.6016 3.59044 21.1163 4.87039 23.3332C6.15034 25.5501 7.99128 27.391 10.2082 28.6709V30.6251C10.2082 31.0118 10.3618 31.3828 10.6353 31.6563C10.9088 31.9297 11.2797 32.0834 11.6665 32.0834H23.3332C23.7199 32.0834 24.0909 31.9297 24.3644 31.6563C24.6379 31.3828 24.7915 31.0118 24.7915 30.6251V28.6709C27.0084 27.391 28.8493 25.5501 30.1293 23.3332C31.4092 21.1163 32.0831 18.6016 32.0832 16.0417C32.0832 15.655 31.9295 15.284 31.656 15.0105C31.3825 14.737 31.0116 14.5834 30.6248 14.5834ZM7.2915 14.5834C7.32855 14.1227 7.50245 13.6835 7.79088 13.3223C8.07932 12.9611 8.46912 12.6944 8.91025 12.5563L10.1207 12.1771L9.88734 10.9376C9.89114 10.6235 9.95678 10.3132 10.0805 10.0245C10.2042 9.73579 10.3836 9.47427 10.6084 9.25489C10.8332 9.0355 11.099 8.86255 11.3907 8.7459C11.6823 8.62926 11.9941 8.57121 12.3082 8.57506C12.7293 8.57265 13.1448 8.67275 13.5186 8.86673L14.6998 9.52298L15.429 8.40006C15.657 8.06018 15.9652 7.78165 16.3264 7.58905C16.6875 7.39646 17.0905 7.29571 17.4998 7.29571C17.9091 7.29571 18.3121 7.39646 18.6733 7.58905C19.0344 7.78165 19.3426 8.06018 19.5707 8.40006L20.2998 9.52298L21.4811 8.86673C21.8549 8.67275 22.2703 8.57265 22.6915 8.57506C23.3223 8.56713 23.9309 8.80721 24.3864 9.24362C24.8419 9.68003 25.1079 10.2779 25.1269 10.9084L24.8936 12.148L26.0894 12.5563C26.5306 12.6944 26.9204 12.9611 27.2088 13.3223C27.4972 13.6835 27.6711 14.1227 27.7082 14.5834H7.2915Z" fill="#545454"/>
</svg>
