<svg width="35" height="35" viewBox="0 0 35 35" fill="none" xmlns="http://www.w3.org/2000/svg">
<path d="M17.6021 12.7019C20.0183 12.7019 21.9771 11.5854 21.9771 10.2081C21.9771 8.83085 20.0183 7.71436 17.6021 7.71436C15.1858 7.71436 13.2271 8.83085 13.2271 10.2081C13.2271 11.5854 15.1858 12.7019 17.6021 12.7019Z" fill="#545454"/>
<path d="M17.6022 32.0832C24.1355 32.0832 29.2689 28.8748 29.2689 24.7915V10.2082C29.2689 6.12484 24.1355 2.9165 17.6022 2.9165C11.0689 2.9165 5.93555 6.12484 5.93555 10.2082V24.7915C5.93555 28.8748 11.0543 32.0832 17.6022 32.0832ZM17.6022 5.83317C22.7501 5.83317 26.3522 8.13734 26.3522 10.2082C26.3114 10.6581 26.1666 11.0925 25.9293 11.4769C24.9376 12.9353 22.2397 14.3936 18.6376 14.5686H16.6105C12.9501 14.3353 10.2085 12.9644 9.26055 11.4332C9.05577 11.0928 8.91722 10.7167 8.85221 10.3248V10.2082C8.85221 8.13734 12.4397 5.83317 17.6022 5.83317Z" fill="#545454"/>
</svg>
