<svg width="35" height="35" viewBox="0 0 35 35" fill="none" xmlns="http://www.w3.org/2000/svg">
<path d="M4.44066 2.11973C4.1326 1.81224 3.715 1.63973 3.27974 1.64014C2.84448 1.64055 2.42721 1.81385 2.11973 2.12191C1.81224 2.42998 1.63973 2.84757 1.64014 3.28283C1.64055 3.7181 1.81385 4.13536 2.12191 4.44285L3.86098 6.17754C3.68066 6.78394 3.67308 7.42863 3.8391 8.0391L5.90629 15.761C6.38754 17.5668 8.13098 18.5216 9.76723 18.2591C9.78303 16.5754 10.296 14.9338 11.2416 13.5407C11.8611 12.627 12.6501 11.8406 13.5658 11.2241C14.9529 10.29 16.5836 9.78343 18.2558 9.76723C18.5183 8.12879 17.5613 6.38754 15.761 5.90629L8.0391 3.8391C7.43089 3.67361 6.78866 3.68043 6.1841 3.85879L4.44066 2.11973Z" fill="#545454"/>
<path d="M17.8707 10.8763C16.6227 10.9547 15.4146 11.3458 14.3576 12.0138C13.4217 12.6054 12.6278 13.396 12.0323 14.3293C11.2648 15.5309 10.8582 16.9274 10.8609 18.3532C10.861 20.0636 11.4462 21.7225 12.5191 23.0545C13.5921 24.3865 15.0883 25.3115 16.7594 25.6759C16.9822 25.2914 17.2543 24.9376 17.5688 24.6237L24.6235 17.569C24.9375 17.2545 25.2912 16.9824 25.6757 16.7596C25.2937 15.0074 24.2961 13.4503 22.864 12.3708C21.432 11.2914 19.6603 10.7611 17.8707 10.8763ZM25.3968 18.3423C26.1484 17.5915 27.1673 17.1699 28.2296 17.1699C29.2919 17.1699 30.3108 17.5915 31.0624 18.3423C31.8134 19.0938 32.2353 20.1127 32.2353 21.1751C32.2353 22.2375 31.8134 23.2564 31.0624 24.0079L29.4973 25.5731L28.8366 24.9157C28.5827 24.6617 28.2811 24.4604 27.9491 24.3231C27.6172 24.1859 27.2615 24.1155 26.9023 24.116C26.5431 24.1165 26.1876 24.1879 25.856 24.3261C25.5245 24.4643 25.2235 24.6665 24.9702 24.9212C24.7161 25.1752 24.5146 25.4768 24.3772 25.8089C24.2399 26.1409 24.1695 26.4968 24.17 26.8561C24.1705 27.2154 24.2419 27.571 24.3802 27.9027C24.5185 28.2343 24.7208 28.5354 24.9757 28.7887L25.6298 29.4406L24.0077 31.0626C23.2501 31.7826 22.2411 32.1781 21.196 32.1648C20.1509 32.1515 19.1524 31.7304 18.4133 30.9914C17.6742 30.2523 17.2532 29.2538 17.2399 28.2087C17.2266 27.1635 17.6221 26.1546 18.3421 25.397L25.3968 18.3423Z" fill="#545454"/>
<path d="M28.0657 25.69C27.7576 25.3826 27.34 25.21 26.9047 25.2104C26.4695 25.2109 26.0522 25.3842 25.7447 25.6922C25.4372 26.0003 25.2647 26.4179 25.2651 26.8531C25.2655 27.2884 25.4388 27.7057 25.7469 28.0132L29.4657 31.721C29.7737 32.0285 30.1913 32.201 30.6266 32.2006C31.0618 32.2002 31.4791 32.0269 31.7866 31.7188C32.0941 31.4107 32.2666 30.9931 32.2662 30.5579C32.2658 30.1226 32.0925 29.7053 31.7844 29.3979L28.0657 25.69Z" fill="#545454"/>
</svg>
