<svg width="35" height="35" viewBox="0 0 35 35" fill="none" xmlns="http://www.w3.org/2000/svg">
<path d="M7.88184 2.45754C7.15723 2.45686 6.41826 2.47258 5.66357 2.50334L2.9873 5.06545C7.59473 14.3076 0.875684 17.083 11.0742 26.0039C21.2734 34.9248 23.3174 27.3985 29.2715 32.5459L31.7598 30.4063C33.5645 11.8262 25.6484 2.46164 7.88184 2.45754ZM11.0127 3.81037C11.0264 3.81106 11.0469 3.81174 11.0605 3.81379C11.3203 3.84319 11.5391 4.03459 11.5938 4.29231C12.1406 6.74367 15.1348 6.85647 16.2285 5.05793C16.3721 4.81526 16.666 4.70451 16.9326 4.78518C17.2061 4.87404 17.3838 5.13176 17.3701 5.41135C17.3154 6.25832 17.5479 6.89065 18.0195 7.25979C18.7783 7.84084 20.002 7.73147 21.2461 7.00686C21.4443 6.88381 21.6973 6.89065 21.8955 7.02053C22.0869 7.15041 22.1963 7.38283 22.1621 7.61526C22.0117 8.73635 22.1689 9.49514 22.5859 9.93947C23.208 10.6026 24.3018 10.5137 25.3682 10.1104C25.6006 10.0283 25.8467 10.083 26.0176 10.2539C26.1953 10.418 26.2432 10.6778 26.1543 10.9033C25.6621 12.2227 25.6074 13.125 25.9014 13.7197C26.0928 14.1094 26.4277 14.335 26.8242 14.4922C27.3164 14.6768 27.8906 14.7315 28.4512 14.752C28.6973 14.7588 28.9092 14.9024 29.0049 15.1348C29.0937 15.3535 29.0527 15.6201 28.8818 15.7842C28.0273 16.666 27.6445 17.5547 27.8496 18.3408C28.0547 19.127 28.8271 19.7422 30.1055 20.1114C30.3311 20.1729 30.502 20.3574 30.5361 20.5967C30.584 20.8223 30.4883 21.0547 30.2969 21.1914C29.3125 21.916 28.9228 22.7569 29.0459 23.5156C29.1553 24.2334 29.7227 24.8213 30.5498 25.0469C30.8164 25.1221 31.001 25.3614 31.0078 25.6416C31.0078 25.9082 30.8232 26.1543 30.5566 26.2295C29.6475 26.4824 29.1348 27.0977 29.0527 27.8291C28.9639 28.6426 29.3603 29.5244 30.2012 30.3379L29.374 31.2197C28.1982 30.1123 27.7129 28.8614 27.8291 27.6856C27.918 26.8926 28.3076 26.1612 29.0049 25.6416C28.3555 25.1426 27.9453 24.459 27.8291 23.7071C27.6992 22.8252 27.9521 21.8272 28.7725 20.918C27.583 20.3574 26.8926 19.544 26.667 18.6416C26.4414 17.794 26.6191 16.8233 27.2549 15.8594C26.1885 15.6612 25.252 15.1895 24.7939 14.2666C24.4863 13.6309 24.3838 12.7627 24.6709 11.5664C23.4883 11.7578 22.3945 11.5254 21.6973 10.7803C21.2324 10.2881 20.9248 9.55666 20.8838 8.53127C19.4756 9.05764 18.1494 8.91408 17.2744 8.23049C16.8232 7.88869 16.4746 7.39651 16.2832 6.76418C14.6084 8.0049 12.0244 7.74514 10.8691 5.77981C10.3359 6.39504 9.7002 6.72317 9.05078 6.81887C7.68359 7.0342 6.1127 6.24465 4.83574 5.03606L5.67861 4.14465C6.26992 4.70451 6.93164 5.17551 7.6084 5.43322C8.18262 5.65403 8.77051 5.7135 9.2832 5.48518C9.74121 5.27873 10.124 4.85149 10.4385 4.16721C10.541 3.94641 10.7666 3.80285 11.0127 3.81037ZM6.5502 16.502C8.37402 20.125 16.3516 27.5899 23.7139 28.6426C21.6494 29.8184 17.6709 28.5674 14.041 26.1543C10.418 23.7002 7.15723 20.0635 6.5502 16.502Z" fill="#545454"/>
</svg>
