<svg width="35" height="35" viewBox="0 0 35 35" fill="none" xmlns="http://www.w3.org/2000/svg">
<path d="M32.0832 4.37484L14.5832 6.43109V8.74984H32.0832V10.2082H14.5832V17.4998H32.0832C32.0832 20.1394 31.2519 22.5457 29.6332 24.7186C28.0144 26.8915 25.9144 28.4811 23.3332 29.5311V32.0832H11.6665V29.5311C9.09984 28.4811 6.98525 26.8769 5.3665 24.7186C3.74775 22.5603 2.9165 20.1394 2.9165 17.4998H7.2915V5.83317L32.0832 2.9165V4.37484ZM8.74984 7.1165V8.74984H10.2082V6.97067L8.74984 7.1165ZM8.74984 10.2082V17.4998H10.2082V10.2082H8.74984ZM13.1248 17.4998V10.2082H11.6665V17.4998H13.1248ZM13.1248 8.74984V6.63525L11.6665 6.7665V8.74984H13.1248Z" fill="#545454"/>
</svg>
