<svg width="99" height="14" viewBox="0 0 99 14" fill="none" xmlns="http://www.w3.org/2000/svg">
<path d="M36 5.1404L30.6075 4.7002L28.5 0L26.3925 4.7073L21 5.1404L25.095 8.4987L23.865 13.49L28.5 10.8417L33.135 13.49L31.9125 8.4987L36 5.1404ZM28.5 9.514L25.68 11.1257L26.43 8.0869L23.94 6.0421L27.225 5.7723L28.5 2.911L29.7825 5.7794L33.0675 6.0492L30.5775 8.094L31.3275 11.1328L28.5 9.514Z" fill="#FF9C35"/>
<path d="M57 5.1404L51.6075 4.7002L49.5 0L47.3925 4.7073L42 5.1404L46.095 8.4987L44.865 13.49L49.5 10.8417L54.135 13.49L52.9125 8.4987L57 5.1404ZM49.5 9.514L46.68 11.1257L47.43 8.0869L44.94 6.0421L48.225 5.7723L49.5 2.911L50.7825 5.7794L54.0675 6.0492L51.5775 8.094L52.3275 11.1328L49.5 9.514Z" fill="#FF9C35"/>
<path d="M78 5.1404L72.6075 4.7002L70.5 0L68.3925 4.7073L63 5.1404L67.095 8.4987L65.865 13.49L70.5 10.8417L75.135 13.49L73.9125 8.4987L78 5.1404ZM70.5 9.514L67.68 11.1257L68.43 8.0869L65.94 6.0421L69.225 5.7723L70.5 2.911L71.7825 5.7794L75.0675 6.0492L72.5775 8.094L73.3275 11.1328L70.5 9.514Z" fill="#FF9C35"/>
<path d="M99 5.1404L93.6075 4.7002L91.5 0L89.3925 4.7073L84 5.1404L88.095 8.4987L86.865 13.49L91.5 10.8417L96.135 13.49L94.9125 8.4987L99 5.1404ZM91.5 9.514L88.68 11.1257L89.43 8.0869L86.94 6.0421L90.225 5.7723L91.5 2.911L92.7825 5.7794L96.0675 6.0492L93.5775 8.094L94.3275 11.1328L91.5 9.514Z" fill="#FF9C35"/>
<path d="M15 5.1404L9.6075 4.7002L7.5 0L5.3925 4.7073L0 5.1404L4.095 8.4987L2.865 13.49L7.5 10.8417L12.135 13.49L10.9125 8.4987L15 5.1404ZM7.5 9.514L4.68 11.1257L5.43 8.0869L2.94 6.0421L6.225 5.7723L7.5 2.911L8.7825 5.7794L12.0675 6.0492L9.5775 8.094L10.3275 11.1328L7.5 9.514Z" fill="#FF9C35"/>
<path d="M87.795 11.507L88.77 7.8096L85.5 5.32275L90.2797 5.00684V10.4354L87.795 11.507Z" fill="#FF9C35"/>
<path d="M45.795 12.0068L46.77 8.30947L43.5 5.82263L47.82 5.49368L49.5 2.00684L51.18 5.49368L55.5 5.82263L52.23 8.30947L53.205 12.0068L49.5 10.0463L45.795 12.0068Z" fill="#FF9C35"/>
<path d="M66.795 12.0068L67.77 8.30947L64.5 5.82263L68.82 5.49368L70.5 2.00684L72.18 5.49368L76.5 5.82263L73.23 8.30947L74.205 12.0068L70.5 10.0463L66.795 12.0068Z" fill="#FF9C35"/>
<path d="M24.795 12.0068L25.77 8.30947L22.5 5.82263L26.82 5.49368L28.5 2.00684L30.18 5.49368L34.5 5.82263L31.23 8.30947L32.205 12.0068L28.5 10.0463L24.795 12.0068Z" fill="#FF9C35"/>
<path d="M3.795 12.0068L4.77 8.30947L1.5 5.82263L5.82 5.49368L7.5 2.00684L9.18 5.49368L13.5 5.82263L10.23 8.30947L11.205 12.0068L7.5 10.0463L3.795 12.0068Z" fill="#FF9C35"/>
</svg>
