<svg width="35" height="35" viewBox="0 0 35 35" fill="none" xmlns="http://www.w3.org/2000/svg">
<path fill-rule="evenodd" clip-rule="evenodd" d="M17.5282 4.375C14.2346 4.375 11.2341 5.46292 9.45856 6.35177C9.29815 6.43198 9.14867 6.51073 9.0094 6.58656C8.73377 6.73677 8.49898 6.87677 8.31231 7L10.3321 9.97354L11.2829 10.352C14.9988 12.2267 19.9819 12.2267 23.6985 10.352L24.7776 9.79198L26.6873 7C26.2918 6.74192 25.8804 6.50886 25.4557 6.30219C23.689 5.42281 20.7599 4.375 17.529 4.375H17.5282ZM12.831 7.74083C12.1157 7.607 11.4093 7.42973 10.7156 7.21C12.3789 6.47135 14.8573 5.6875 17.5282 5.6875C19.3781 5.6875 21.1274 6.06375 22.5741 6.54063C20.8788 6.77906 19.0697 7.18375 17.346 7.68177C15.9897 8.07406 14.4045 8.03177 12.831 7.74083ZM24.4685 11.4333L24.2891 11.5238C20.2014 13.5858 14.7793 13.5858 10.6916 11.5238L10.5217 11.4377C4.38065 18.1759 -0.307897 30.6228 17.5282 30.6228C35.3644 30.6228 30.5614 17.9433 24.4685 11.4333ZM16.7706 17.5C16.3839 17.5 16.0129 17.6536 15.7394 17.9271C15.466 18.2006 15.3123 18.5716 15.3123 18.9583C15.3123 19.3451 15.466 19.716 15.7394 19.9895C16.0129 20.263 16.3839 20.4167 16.7706 20.4167V17.5ZM18.229 16.0417V15.3125H16.7706V16.0417C15.9971 16.0417 15.2552 16.349 14.7083 16.8959C14.1613 17.4429 13.854 18.1848 13.854 18.9583C13.854 19.7319 14.1613 20.4737 14.7083 21.0207C15.2552 21.5677 15.9971 21.875 16.7706 21.875V24.7917C16.1363 24.7917 15.596 24.387 15.3947 23.8197C15.3649 23.7269 15.3167 23.641 15.2531 23.5671C15.1894 23.4933 15.1116 23.4329 15.0243 23.3896C14.9369 23.3463 14.8417 23.321 14.7444 23.3151C14.6471 23.3093 14.5496 23.323 14.4577 23.3555C14.3657 23.388 14.2813 23.4385 14.2092 23.5042C14.1372 23.5699 14.0791 23.6494 14.0383 23.738C13.9975 23.8265 13.9749 23.9224 13.9718 24.0198C13.9687 24.1173 13.9852 24.2143 14.0202 24.3053C14.2214 24.874 14.5939 25.3664 15.0864 25.7147C15.579 26.063 16.1674 26.25 16.7706 26.25V26.9792H18.229V26.25C19.0025 26.25 19.7444 25.9427 20.2914 25.3957C20.8384 24.8487 21.1456 24.1069 21.1456 23.3333C21.1456 22.5598 20.8384 21.8179 20.2914 21.2709C19.7444 20.724 19.0025 20.4167 18.229 20.4167V17.5C18.8634 17.5 19.4037 17.9047 19.6049 18.472C19.6348 18.5648 19.6829 18.6507 19.7466 18.7245C19.8102 18.7984 19.888 18.8588 19.9754 18.9021C20.0627 18.9453 20.1579 18.9707 20.2552 18.9765C20.3525 18.9824 20.45 18.9687 20.542 18.9362C20.6339 18.9037 20.7184 18.8531 20.7904 18.7874C20.8624 18.7217 20.9206 18.6422 20.9614 18.5537C21.0021 18.4651 21.0247 18.3693 21.0278 18.2718C21.0309 18.1744 21.0145 18.0773 20.9794 17.9864C20.7783 17.4176 20.4058 16.9252 19.9132 16.577C19.4206 16.2287 18.8322 16.0417 18.229 16.0417ZM18.229 21.875V24.7917C18.6158 24.7917 18.9867 24.638 19.2602 24.3645C19.5337 24.091 19.6873 23.7201 19.6873 23.3333C19.6873 22.9466 19.5337 22.5756 19.2602 22.3021C18.9867 22.0286 18.6158 21.875 18.229 21.875Z" fill="#545454"/>
</svg>
