<svg width="35" height="35" viewBox="0 0 35 35" fill="none" xmlns="http://www.w3.org/2000/svg">
<path d="M19.1335 3.00408L11.0543 11.0832C10.5147 11.6228 10.2085 12.3666 10.2085 13.1395V27.7082C10.2085 29.3124 11.521 30.6249 13.1252 30.6249H26.2502C27.4168 30.6249 28.4668 29.9249 28.9335 28.8603L33.6877 17.7624C34.9127 14.8749 32.7981 11.6666 29.6627 11.6666H21.4231L22.8085 4.98741C22.9543 4.25825 22.7356 3.5145 22.2106 2.9895C21.3502 2.14366 19.9793 2.14366 19.1335 3.00408ZM4.37516 30.6249C5.97933 30.6249 7.29183 29.3124 7.29183 27.7082V16.0416C7.29183 14.4374 5.97933 13.1249 4.37516 13.1249C2.771 13.1249 1.4585 14.4374 1.4585 16.0416V27.7082C1.4585 29.3124 2.771 30.6249 4.37516 30.6249Z" fill="#545454"/>
</svg>
