<svg width="20" height="23" viewBox="0 0 20 23" fill="none" xmlns="http://www.w3.org/2000/svg">
<path d="M11.0518 14.4174L14.1789 10.7966C14.3282 10.6296 14.5281 10.5372 14.7357 10.5393C14.9433 10.5414 15.1419 10.6378 15.2886 10.8077C15.4354 10.9777 15.5187 11.2076 15.5205 11.448C15.5223 11.6883 15.4425 11.9199 15.2983 12.0927L10.8198 17.2783C10.7465 17.3637 10.6593 17.4315 10.5632 17.4778C10.4671 17.524 10.3641 17.5479 10.2601 17.5479C10.1561 17.5479 10.0531 17.524 9.95702 17.4778C9.86096 17.4315 9.77375 17.3637 9.7004 17.2783L5.22194 12.0927C5.0813 11.9191 5.00453 11.6889 5.00786 11.4508C5.0112 11.2128 5.09439 10.9856 5.23983 10.8173C5.38527 10.649 5.58155 10.5528 5.78713 10.5491C5.99272 10.5455 6.19148 10.6345 6.34136 10.7975L9.46844 14.4183V5.63115C9.46844 5.38804 9.55185 5.15488 9.70032 4.98297C9.84878 4.81106 10.0501 4.71449 10.2601 4.71449C10.4701 4.71449 10.6714 4.81106 10.8199 4.98297C10.9684 5.15488 11.0518 5.38804 11.0518 5.63115V14.4174Z" fill="black"/>
</svg>
