<svg width="19" height="22" viewBox="0 0 19 22" fill="none" xmlns="http://www.w3.org/2000/svg">
<path d="M7.46873 8.13045L4.34165 11.7513C4.19234 11.9183 3.99236 12.0107 3.78479 12.0086C3.57722 12.0065 3.37866 11.9101 3.23187 11.7401C3.08509 11.5702 3.00183 11.3402 3.00003 11.0999C2.99823 10.8596 3.07802 10.628 3.22223 10.4551L7.70069 5.26953C7.77404 5.18411 7.86125 5.11633 7.9573 5.07007C8.05336 5.02381 8.15637 5 8.2604 5C8.36443 5 8.46743 5.02381 8.56349 5.07007C8.65954 5.11633 8.74675 5.18411 8.82011 5.26953L13.2986 10.4551C13.4392 10.6288 13.516 10.859 13.5126 11.097C13.5093 11.3351 13.4261 11.5623 13.2807 11.7306C13.1352 11.8988 12.939 11.995 12.7334 11.9987C12.5278 12.0024 12.329 11.9133 12.1791 11.7504L9.05206 8.12953V16.9167C9.05206 17.1598 8.96866 17.393 8.82019 17.5649C8.67172 17.7368 8.47036 17.8334 8.2604 17.8334C8.05043 17.8334 7.84907 17.7368 7.7006 17.5649C7.55214 17.393 7.46873 17.1598 7.46873 16.9167V8.13045Z" fill="black"/>
</svg>
