<svg width="35" height="35" viewBox="0 0 35 35" fill="none" xmlns="http://www.w3.org/2000/svg">
<path d="M26.6771 23.5411H32.4871V25.2911H27.6571C29.4258 26.6633 30.7439 28.533 31.4417 30.6601L29.7851 31.2248C29.0923 29.0833 27.6509 27.2633 25.7251 26.0984C25.0567 26.7048 24.2088 27.0767 23.3101 27.1578L19.6864 30.2984H15.2134L11.6317 27.1204C10.6985 27.039 9.81073 26.6816 9.08139 26.0938C7.15203 27.2585 5.70789 29.0804 5.01439 31.2248L3.35773 30.6601C4.05624 28.5333 5.37414 26.6638 7.14239 25.2911H2.31006V23.5411H8.12939L10.1431 21.9614L7.77706 18.0998C7.56859 18.1348 7.35822 18.1574 7.14706 18.1674C6.50988 18.1778 5.87721 18.0589 5.28731 17.8178C4.6974 17.5767 4.1625 17.2185 3.71496 16.7649C3.26741 16.3112 2.9165 15.7715 2.68345 15.1784C2.4504 14.5853 2.34005 13.9511 2.35906 13.3141C2.35906 8.46076 6.97673 3.60742 6.97673 3.60742L5.25706 13.9838L9.28439 13.9814L11.6434 6.96509V13.9558C11.5494 15.2244 10.9642 16.4064 10.0124 17.2504L12.0051 20.5031L12.2011 20.3491C13.7275 19.2651 15.5532 18.6828 17.4254 18.6828C19.2975 18.6828 21.1233 19.2651 22.6497 20.3491L22.7897 20.4588L24.8197 17.1571C23.942 16.3115 23.4076 15.1714 23.3194 13.9558V6.96509L25.6131 13.9814L29.7081 13.9838L27.9884 3.60742C27.9884 3.60742 32.6131 8.46076 32.6131 13.3141C32.6318 13.9518 32.5209 14.5866 32.2872 15.1802C32.0534 15.7738 31.7017 16.3139 31.2532 16.7676C30.8047 17.2213 30.2688 17.5793 29.678 17.8199C29.0871 18.0605 28.4536 18.1787 27.8157 18.1674C27.5464 18.1587 27.2781 18.1299 27.0131 18.0811L24.6564 21.9218L26.6164 23.4594C26.6467 23.4828 26.6514 23.5154 26.6771 23.5411Z" fill="#545454"/>
</svg>
