<svg width="35" height="37" viewBox="0 0 35 37" fill="none" xmlns="http://www.w3.org/2000/svg">
<path d="M28.702 32.375L19.6846 22.6625C18.9689 23.2792 18.1459 23.7674 17.2155 24.1271C16.2852 24.4868 15.2952 24.6667 14.2455 24.6667C11.6453 24.6667 9.44485 23.6964 7.64424 21.756C5.84363 19.8156 4.94285 17.4455 4.94189 14.6458C4.94189 11.8451 5.84268 9.47508 7.64424 7.53567C9.44581 5.59625 11.6462 4.62603 14.2455 4.625C16.8458 4.625 19.0462 5.59522 20.8468 7.53567C22.6474 9.47611 23.5482 11.8462 23.5492 14.6458C23.5492 15.7764 23.3822 16.8427 23.0482 17.8448C22.7142 18.8469 22.261 19.7333 21.6884 20.5042L30.7058 30.2167L28.702 32.375ZM14.2455 21.5833C16.0347 21.5833 17.5557 20.9086 18.8086 19.5591C20.0615 18.2097 20.6875 16.5719 20.6865 14.6458C20.6865 12.7188 20.0601 11.0805 18.8072 9.731C17.5543 8.38153 16.0337 7.70731 14.2455 7.70833C12.4564 7.70833 10.9353 8.38307 9.68246 9.73254C8.42957 11.082 7.8036 12.7198 7.80455 14.6458C7.80455 16.5729 8.431 18.2112 9.68389 19.5607C10.9368 20.9101 12.4573 21.5844 14.2455 21.5833Z" fill="white"/>
</svg>
