<svg width="35" height="35" viewBox="0 0 35 35" fill="none" xmlns="http://www.w3.org/2000/svg">
<path d="M5.8335 30.625V27.7083H29.1668V30.625H5.8335ZM26.2502 11.6667H29.1668V7.29167H26.2502V11.6667ZM11.6668 24.7917C10.0627 24.7917 8.6894 24.2205 7.54704 23.0781C6.40468 21.9358 5.8335 20.5625 5.8335 18.9583V4.375H13.1252V7.875L10.5002 9.98958C10.4516 10.0382 10.3543 10.2326 10.2085 10.5729V16.7708C10.2085 16.9653 10.2814 17.1354 10.4272 17.2813C10.5731 17.4271 10.7432 17.5 10.9377 17.5H16.771C16.9654 17.5 17.1356 17.4271 17.2814 17.2813C17.4272 17.1354 17.5002 16.9653 17.5002 16.7708V10.5729C17.5002 10.5243 17.4029 10.3299 17.2085 9.98958L14.5835 7.875V4.375H29.1668C29.9689 4.375 30.6558 4.66035 31.2275 5.23104C31.7991 5.80174 32.0845 6.48861 32.0835 7.29167V11.6667C32.0835 12.4688 31.7977 13.1556 31.226 13.7273C30.6543 14.299 29.9679 14.5843 29.1668 14.5833H26.2502V18.9583C26.2502 20.5625 25.679 21.9358 24.5366 23.0781C23.3943 24.2205 22.021 24.7917 20.4168 24.7917H11.6668Z" fill="#545454"/>
</svg>
