<svg width="35" height="35" viewBox="0 0 35 35" fill="none" xmlns="http://www.w3.org/2000/svg">
<path d="M7.29147 32.0833C5.36647 32.0833 4.59356 28.6416 4.43314 27.2708C4.26044 25.9399 4.42079 24.587 4.89981 23.3333C5.11034 22.7368 5.47247 22.2053 5.95061 21.791C6.42874 21.3768 7.00643 21.0942 7.62689 20.9708C9.33314 20.6791 10.5436 21.7 12.0894 22.05C12.3798 22.1432 12.6893 22.1595 12.9879 22.0974C13.2865 22.0353 13.5639 21.8969 13.793 21.6957C14.0222 21.4944 14.1953 21.2373 14.2954 20.9492C14.3955 20.6611 14.4193 20.352 14.3644 20.0521C13.7227 17.5437 9.15814 17.5 7.29147 17.5C7.29147 14.7875 10.2665 14.4375 12.3956 14.6416C13.6588 14.7636 14.9025 15.0379 16.0998 15.4583C16.829 15.7062 17.6748 16.3333 18.4769 16.275C19.6873 16.1729 19.9352 14.9187 19.4102 14C18.1415 11.8416 14.5394 11.6666 12.3956 11.6666C12.3956 8.74997 14.9186 8.19581 17.3394 8.63331C18.5894 8.87914 19.8076 9.26563 20.9706 9.78539C21.7144 10.1062 22.604 10.7187 23.4206 10.4416C25.5206 9.79997 23.3331 7.55414 22.3998 7.01456C21.7447 6.65308 21.0498 6.36922 20.329 6.16872C19.5415 5.93539 18.579 6.02289 19.2936 5.10414C20.4109 4.11833 21.7972 3.48865 23.2748 3.29581C26.0311 2.65414 29.8373 2.53747 30.5081 6.00831C30.7317 7.84077 30.292 9.69274 29.2686 11.2291C26.5517 15.8763 23.1882 20.1138 19.279 23.8146C17.2084 25.9371 14.9645 27.8834 12.5706 29.6333C11.1123 30.6833 9.18731 32.0833 7.29147 32.0833Z" fill="#545454"/>
</svg>
