<svg width="35" height="35" viewBox="0 0 35 35" fill="none" xmlns="http://www.w3.org/2000/svg">
<path d="M26.3377 33.5418H28.7585C29.9835 33.5418 30.9897 32.5939 31.1356 31.3981L33.5418 7.36475H26.2502V1.4585H23.3772V7.36475H16.1293L16.5668 10.7772C19.0606 11.4627 21.3939 12.7022 22.7939 14.0731C24.8939 16.1439 26.3377 18.2877 26.3377 21.7877V33.5418ZM1.4585 32.0835V30.6252H23.3772V32.0835C23.3772 32.871 22.721 33.5418 21.8752 33.5418H2.91683C2.11475 33.5418 1.4585 32.871 1.4585 32.0835ZM23.3772 21.8752C23.3772 10.2085 1.4585 10.2085 1.4585 21.8752H23.3772ZM1.4585 24.7918H23.3335V27.7085H1.4585V24.7918Z" fill="#545454"/>
</svg>
