<svg width="20" height="20" viewBox="0 0 20 20" fill="none" xmlns="http://www.w3.org/2000/svg">
<path d="M6.49984 1.6665H13.4998C16.1665 1.6665 18.3332 3.83317 18.3332 6.49984V13.4998C18.3332 14.7817 17.8239 16.0111 16.9175 16.9175C16.0111 17.8239 14.7817 18.3332 13.4998 18.3332H6.49984C3.83317 18.3332 1.6665 16.1665 1.6665 13.4998V6.49984C1.6665 5.21796 2.17573 3.98858 3.08215 3.08215C3.98858 2.17573 5.21796 1.6665 6.49984 1.6665ZM6.33317 3.33317C5.53752 3.33317 4.77446 3.64924 4.21185 4.21185C3.64924 4.77446 3.33317 5.53752 3.33317 6.33317V13.6665C3.33317 15.3248 4.67484 16.6665 6.33317 16.6665H13.6665C14.4622 16.6665 15.2252 16.3504 15.7878 15.7878C16.3504 15.2252 16.6665 14.4622 16.6665 13.6665V6.33317C16.6665 4.67484 15.3248 3.33317 13.6665 3.33317H6.33317ZM14.3748 4.58317C14.6511 4.58317 14.9161 4.69292 15.1114 4.88827C15.3068 5.08362 15.4165 5.34857 15.4165 5.62484C15.4165 5.9011 15.3068 6.16606 15.1114 6.36141C14.9161 6.55676 14.6511 6.6665 14.3748 6.6665C14.0986 6.6665 13.8336 6.55676 13.6383 6.36141C13.4429 6.16606 13.3332 5.9011 13.3332 5.62484C13.3332 5.34857 13.4429 5.08362 13.6383 4.88827C13.8336 4.69292 14.0986 4.58317 14.3748 4.58317ZM9.99984 5.83317C11.1049 5.83317 12.1647 6.27216 12.9461 7.05356C13.7275 7.83496 14.1665 8.89477 14.1665 9.99984C14.1665 11.1049 13.7275 12.1647 12.9461 12.9461C12.1647 13.7275 11.1049 14.1665 9.99984 14.1665C8.89477 14.1665 7.83496 13.7275 7.05356 12.9461C6.27216 12.1647 5.83317 11.1049 5.83317 9.99984C5.83317 8.89477 6.27216 7.83496 7.05356 7.05356C7.83496 6.27216 8.89477 5.83317 9.99984 5.83317ZM9.99984 7.49984C9.3368 7.49984 8.70091 7.76323 8.23207 8.23207C7.76323 8.70091 7.49984 9.3368 7.49984 9.99984C7.49984 10.6629 7.76323 11.2988 8.23207 11.7676C8.70091 12.2364 9.3368 12.4998 9.99984 12.4998C10.6629 12.4998 11.2988 12.2364 11.7676 11.7676C12.2364 11.2988 12.4998 10.6629 12.4998 9.99984C12.4998 9.3368 12.2364 8.70091 11.7676 8.23207C11.2988 7.76323 10.6629 7.49984 9.99984 7.49984Z" fill="#F8F8F8"/>
</svg>
