<svg width="283" height="50" viewBox="0 0 283 50" fill="none" xmlns="http://www.w3.org/2000/svg">
<path d="M228.5 0.5H268C276.008 0.5 282.5 6.99187 282.5 15V35C282.5 43.0081 276.008 49.5 268 49.5H228.5V0.5Z" fill="white" stroke="#D9D9D9"/>
<rect x="249.5" y="26.5" width="13" height="13" stroke="white"/>
<path d="M256 36.074L259.605 38.2498L258.648 34.149L261.833 31.3898L257.639 31.034L256 27.1665L254.361 31.034L250.167 31.3898L253.352 34.149L252.395 38.2498L256 36.074Z" fill="black"/>
<path d="M248 20.074L251.605 22.2498L250.648 18.149L253.833 15.3898L249.639 15.034L248 11.1665L246.361 15.034L242.167 15.3898L245.352 18.149L244.395 22.2498L248 20.074Z" fill="black"/>
<path d="M272 36.074L275.605 38.2498L274.648 34.149L277.833 31.3898L273.639 31.034L272 27.1665L270.361 31.034L266.167 31.3898L269.352 34.149L268.395 38.2498L272 36.074Z" fill="black"/>
<path d="M264 20.074L267.605 22.2498L266.648 18.149L269.833 15.3898L265.639 15.034L264 11.1665L262.361 15.034L258.167 15.3898L261.352 18.149L260.395 22.2498L264 20.074Z" fill="black"/>
<path d="M240 36.074L243.605 38.2498L242.648 34.149L245.833 31.3898L241.639 31.034L240 27.1665L238.361 31.034L234.167 31.3898L237.352 34.149L236.395 38.2498L240 36.074Z" fill="black"/>
<path d="M171.5 0.5H225.5V49.5H171.5V0.5Z" fill="white" stroke="#D9D9D9"/>
<path d="M191 36.074L194.605 38.2498L193.648 34.149L196.833 31.3898L192.639 31.034L191 27.1665L189.361 31.034L185.167 31.3898L188.352 34.149L187.395 38.2498L191 36.074Z" fill="black"/>
<path d="M191 20.074L194.605 22.2498L193.648 18.149L196.833 15.3898L192.639 15.034L191 11.1665L189.361 15.034L185.167 15.3898L188.352 18.149L187.395 22.2498L191 20.074Z" fill="black"/>
<path d="M207 36.074L210.605 38.2498L209.648 34.149L212.833 31.3898L208.639 31.034L207 27.1665L205.361 31.034L201.167 31.3898L204.352 34.149L203.395 38.2498L207 36.074Z" fill="black"/>
<path d="M207 20.074L210.605 22.2498L209.648 18.149L212.833 15.3898L208.639 15.034L207 11.1665L205.361 15.034L201.167 15.3898L204.352 18.149L203.395 22.2498L207 20.074Z" fill="black"/>
<path d="M114.5 0.5H168.5V49.5H114.5V0.5Z" fill="white" stroke="#D9D9D9"/>
<path d="M134 36.074L137.605 38.2498L136.648 34.149L139.833 31.3898L135.639 31.034L134 27.1665L132.361 31.034L128.167 31.3898L131.352 34.149L130.395 38.2498L134 36.074Z" fill="black"/>
<path d="M150 36.074L153.605 38.2498L152.648 34.149L155.833 31.3898L151.639 31.034L150 27.1665L148.361 31.034L144.167 31.3898L147.352 34.149L146.395 38.2498L150 36.074Z" fill="black"/>
<path d="M142 20.074L145.605 22.2498L144.648 18.149L147.833 15.3898L143.639 15.034L142 11.1665L140.361 15.034L136.167 15.3898L139.352 18.149L138.395 22.2498L142 20.074Z" fill="black"/>
<path d="M57.5 0.5H111.5V49.5H57.5V0.5Z" fill="white" stroke="#D9D9D9"/>
<path d="M76.9998 28.074L80.6048 30.2498L79.6482 26.149L82.8332 23.3898L78.639 23.034L76.9998 19.1665L75.3607 23.034L71.1665 23.3898L74.3515 26.149L73.3948 30.2498L76.9998 28.074Z" fill="black"/>
<path d="M92.9998 28.074L96.6048 30.2498L95.6482 26.149L98.8332 23.3898L94.639 23.034L92.9998 19.1665L91.3607 23.034L87.1665 23.3898L90.3515 26.149L89.3948 30.2498L92.9998 28.074Z" fill="black"/>
<path d="M0.5 15C0.5 6.99187 6.99187 0.5 15 0.5H54.5V49.5H15C6.99187 49.5 0.5 43.0081 0.5 35V15Z" fill="white" stroke="#D9D9D9"/>
<path d="M27.9998 28.074L31.6048 30.2498L30.6482 26.149L33.8332 23.3898L29.639 23.034L27.9998 19.1665L26.3607 23.034L22.1665 23.3898L25.3515 26.149L24.3948 30.2498L27.9998 28.074Z" fill="black"/>
</svg>
