<svg xmlns="http://www.w3.org/2000/svg" viewBox="0 0 791.09 193.36"><defs><style>.cls-1{fill:#fff;}.cls-2{fill:none;stroke:#fff;stroke-linecap:round;stroke-linejoin:round;stroke-width:22px;}</style></defs><g id="Layer_2" data-name="Layer 2"><g id="Layer_1-2" data-name="Layer 1"><path class="cls-1" d="M86,16.46H2.63A2.63,2.63,0,0,0,0,19.09V126.83a2.62,2.62,0,0,0,2.63,2.62H29.34A2.62,2.62,0,0,0,32,126.83V93.34a2.63,2.63,0,0,1,2.63-2.63H79.21a2.62,2.62,0,0,0,2.63-2.62V68.64A2.62,2.62,0,0,0,79.21,66H34.59A2.63,2.63,0,0,1,32,63.39V43.78a2.62,2.62,0,0,1,2.63-2.62H86a2.63,2.63,0,0,0,2.63-2.63V19.09A2.63,2.63,0,0,0,86,16.46Z"/><path class="cls-1" d="M187.24,62.22a42.91,42.91,0,0,0-17.59-16,55.59,55.59,0,0,0-25.5-5.73,55.12,55.12,0,0,0-25.43,5.73,43.13,43.13,0,0,0-24,39.31,43.26,43.26,0,0,0,24,39.54,54.55,54.55,0,0,0,25.35,5.81,54.88,54.88,0,0,0,25.5-5.81A43.21,43.21,0,0,0,187.24,109a44,44,0,0,0,6.3-23.4A43.66,43.66,0,0,0,187.24,62.22ZM164.47,93.87a18.51,18.51,0,0,1-26.47,0q-5.16-5.57-5.16-15.41,0-9.69,5.16-15.18a18.72,18.72,0,0,1,26.47,0q5.17,5.49,5.17,15.18Q169.64,88.3,164.47,93.87Z"/><path class="cls-1" d="M294.74,62.22a42.91,42.91,0,0,0-17.59-16,59.45,59.45,0,0,0-50.93,0,43.13,43.13,0,0,0-24,39.31,43.26,43.26,0,0,0,24.05,39.54,58.54,58.54,0,0,0,50.85,0A43.21,43.21,0,0,0,294.74,109a44,44,0,0,0,6.3-23.4A43.66,43.66,0,0,0,294.74,62.22ZM272,93.87a18.51,18.51,0,0,1-26.47,0q-5.17-5.57-5.17-15.41,0-9.69,5.17-15.18a18.72,18.72,0,0,1,26.47,0q5.16,5.49,5.17,15.18Q277.14,88.3,272,93.87Z"/><path class="cls-1" d="M405.59,9.68H380.17a2.62,2.62,0,0,0-2.62,2.63V43.87A2.62,2.62,0,0,1,373.39,46q-7.87-5.46-20.05-5.47A44,44,0,0,0,331.54,46,39.89,39.89,0,0,0,316,61.74Q310.24,72,310.24,85.55T316,109.44a40.38,40.38,0,0,0,15.57,15.9,43.54,43.54,0,0,0,21.8,5.56q13.32,0,21.46-6.17a2.6,2.6,0,0,1,1.57-.54,2.63,2.63,0,0,1,2.63,2.64,2.62,2.62,0,0,0,2.63,2.62h24a2.62,2.62,0,0,0,2.63-2.62V12.31A2.63,2.63,0,0,0,405.59,9.68ZM372.87,101a18.32,18.32,0,0,1-26.31,0q-5.18-5.56-5.17-15.41,0-9.69,5.17-15.18a17.38,17.38,0,0,1,13.23-5.48A17.15,17.15,0,0,1,373,70.37Q378,75.86,378,85.55,378,95.39,372.87,101Z"/><path class="cls-1" d="M522.29,104.11H471.16a2.62,2.62,0,0,1-2-4.32l52.72-62.58a2.61,2.61,0,0,0,.62-1.69V19.09a2.63,2.63,0,0,0-2.63-2.63H427.79a2.63,2.63,0,0,0-2.63,2.63V39.18a2.62,2.62,0,0,0,2.63,2.62h47.26a2.62,2.62,0,0,1,2,4.32L424.33,108.7a2.65,2.65,0,0,0-.62,1.69v16.44a2.62,2.62,0,0,0,2.63,2.62h95.95a2.62,2.62,0,0,0,2.63-2.62V106.74A2.63,2.63,0,0,0,522.29,104.11Z"/><path class="cls-1" d="M564.3,4.44a17,17,0,0,0-22.92,0,15.27,15.27,0,0,0-4.52,11.38,15.7,15.7,0,0,0,4.44,11.46,16,16,0,0,0,27.52-11.46A15.27,15.27,0,0,0,564.3,4.44ZM565.55,42H540.13a2.62,2.62,0,0,0-2.62,2.63v82.24a2.62,2.62,0,0,0,2.62,2.62h25.42a2.62,2.62,0,0,0,2.63-2.62V44.59A2.63,2.63,0,0,0,565.55,42Z"/><path class="cls-1" d="M671.24,50.2q-9.93-9.69-26.23-9.69a41.65,41.65,0,0,0-15.5,2.83,35.3,35.3,0,0,0-8.09,4.48,2.62,2.62,0,0,1-4.18-2.11V44.59A2.62,2.62,0,0,0,614.62,42h-24A2.62,2.62,0,0,0,588,44.59v82.24a2.62,2.62,0,0,0,2.62,2.62h25.42a2.62,2.62,0,0,0,2.63-2.62V87.16q0-10.32,4.76-15.49t12.67-5.17q14.37,0,14.37,17.92v42.41a2.62,2.62,0,0,0,2.62,2.62h25.42a2.62,2.62,0,0,0,2.62-2.62V79.41Q681.16,59.88,671.24,50.2Z"/><path class="cls-1" d="M784.87,61.58A41.07,41.07,0,0,0,768,45.92a55.06,55.06,0,0,0-48.42.4,43.17,43.17,0,0,0-23.4,39.23,42.77,42.77,0,0,0,24.37,39.54q11.63,5.82,27,5.81,22.86,0,35.49-12.33a2.63,2.63,0,0,0,0-3.69l-12.72-13.23a2.64,2.64,0,0,0-3.5-.25,29.78,29.78,0,0,1-7.45,4.32,30.11,30.11,0,0,1-10.9,1.78q-8.38,0-14-3.63a17.33,17.33,0,0,1-6-6.59,2.62,2.62,0,0,1,2.34-3.82h57.29A2.63,2.63,0,0,0,790.77,91c.21-3.25.32-5,.32-5.13Q791.09,71.83,784.87,61.58ZM758.93,77.31h-29a2.63,2.63,0,0,1-2.46-3.55,17.2,17.2,0,0,1,5.09-7.42,19.44,19.44,0,0,1,23.73,0,17.3,17.3,0,0,1,5.1,7.42A2.64,2.64,0,0,1,758.93,77.31Z"/><path class="cls-2" d="M154.22,166.75s15.48,15.61,43.58,15.61,43.59-15.61,43.59-15.61-6.61-20.76-19.1-13.6c-11.85,6.79-.13,25-.13,25"/></g></g></svg>