<svg xmlns="http://www.w3.org/2000/svg" viewBox="0 0 557.58 558.2"><defs><style>.cls-1{fill:#fff;}</style></defs><g id="Layer_2" data-name="Layer 2"><g id="Layer_1-2" data-name="Layer 1"><path class="cls-1" d="M469.12,3.83C466-3.85,128.77,2.76,115.66.62A115.66,115.66,0,0,0,0,116.27V442.54a116,116,0,0,0,3.22,27.19c4.66,19.34,28.8,26,42.86,11.95L334.91,192.85,250.76,187A72.25,72.25,0,0,1,180,244.84c-39.88,0-124.32-16.25-124.32-72.22S140.09,100.41,180,100.41A72.23,72.23,0,0,1,251.26,161c39.63-2.39,87-6.17,124.91-9.43l104.9-104.9C495.13,32.63,488.45,8.5,469.12,3.83Z"/><path class="cls-1" d="M557.58,116.27V442.54A115.66,115.66,0,0,1,441.93,558.2H115.66A116,116,0,0,1,88.47,555c-19.34-4.66-26-28.8-12-42.86L182.33,406.31c44.17-3.15,99.09-6.91,137.2-9.22,7.28,25.58,37.5,45.07,74,45.61h91.62c8.2.12,14.93-5.07,15.05-13.27a14.84,14.84,0,0,0-14.61-15.05H394l.19-12.54h91.61a14.83,14.83,0,1,0,.43-29.66H394.58l.19-12.54h91.62a14.83,14.83,0,1,0,.43-29.66H395.21c-36.9-.55-68,17.43-75.59,43l-98.11-5.82L391.84,196.8l51.42-51.42,68.25-68.25c14.06-14.06,38.2-7.38,42.86,12A116,116,0,0,1,557.58,116.27Z"/></g></g></svg>