<svg width="26" height="26" viewBox="0 0 26 26" fill="none" xmlns="http://www.w3.org/2000/svg">
<path id="Vector" d="M13 0C9.55219 0 6.24558 1.36964 3.80761 3.80761C1.36964 6.24558 0 9.55219 0 13C0 16.4478 1.36964 19.7544 3.80761 22.1924C6.24558 24.6304 9.55219 26 13 26C15.6888 26 18.5125 25.19 20.5537 23.8337C20.6632 23.761 20.7572 23.6675 20.8304 23.5584C20.9037 23.4494 20.9547 23.327 20.9807 23.1982C21.0066 23.0694 21.0069 22.9368 20.9816 22.8078C20.9563 22.6789 20.9058 22.5563 20.8331 22.4469C20.7604 22.3375 20.6668 22.2435 20.5578 22.1702C20.4487 22.097 20.3263 22.0459 20.1975 22.02C20.0688 21.994 19.9361 21.9937 19.8072 22.019C19.6783 22.0443 19.5557 22.0948 19.4463 22.1675C17.75 23.2975 15.2762 24 13 24C10.8244 24 8.69767 23.3549 6.88873 22.1462C5.07979 20.9375 3.66989 19.2195 2.83733 17.2095C2.00476 15.1995 1.78692 12.9878 2.21136 10.854C2.6358 8.72022 3.68345 6.7602 5.22183 5.22183C6.7602 3.68345 8.72022 2.6358 10.854 2.21136C12.9878 1.78692 15.1995 2.00476 17.2095 2.83733C19.2195 3.66989 20.9375 5.07979 22.1462 6.88873C23.3549 8.69767 24 10.8244 24 13C24 16.3062 22.64 17 21.5 17C20.36 17 19 16.3062 19 13V8C19 7.73478 18.8946 7.48043 18.7071 7.29289C18.5196 7.10536 18.2652 7 18 7C17.7348 7 17.4804 7.10536 17.2929 7.29289C17.1054 7.48043 17 7.73478 17 8V8.5325C16.1026 7.72791 14.9837 7.21224 13.789 7.05267C12.5944 6.89311 11.3793 7.09703 10.3022 7.63789C9.2251 8.17875 8.33585 9.03146 7.75031 10.0849C7.16476 11.1384 6.91007 12.3438 7.0194 13.5441C7.12874 14.7445 7.59704 15.884 8.36329 16.8144C9.12955 17.7447 10.1582 18.4227 11.3153 18.7601C12.4724 19.0974 13.7043 19.0784 14.8505 18.7056C15.9967 18.3328 17.004 17.6235 17.7412 16.67C18.4912 18.17 19.785 19 21.5 19C24.3175 19 26 16.7575 26 13C25.9964 9.5533 24.6256 6.24882 22.1884 3.81163C19.7512 1.37445 16.4467 0.00363977 13 0ZM13 17C12.2089 17 11.4355 16.7654 10.7777 16.3259C10.1199 15.8864 9.60723 15.2616 9.30448 14.5307C9.00173 13.7998 8.92252 12.9956 9.07686 12.2196C9.2312 11.4437 9.61216 10.731 10.1716 10.1716C10.731 9.61216 11.4437 9.2312 12.2196 9.07686C12.9956 8.92252 13.7998 9.00173 14.5307 9.30448C15.2616 9.60723 15.8864 10.1199 16.3259 10.7777C16.7654 11.4355 17 12.2089 17 13C17 14.0609 16.5786 15.0783 15.8284 15.8284C15.0783 16.5786 14.0609 17 13 17Z" fill="#1877F2"/>
</svg>
